<svg width="1200" height="800" viewBox="0 0 1200 800" fill="none" xmlns="http://www.w3.org/2000/svg">
  <rect width="1200" height="800" fill="#0E1116"/>
  <rect x="90" y="90" width="1020" height="620" rx="34" fill="#151A22"/>
  <rect x="130" y="130" width="940" height="84" rx="20" fill="#1F2937"/>
  <rect x="130" y="250" width="420" height="420" rx="26" fill="#111827"/>
  <rect x="586" y="250" width="484" height="126" rx="24" fill="#F8FAFC" fill-opacity="0.06"/>
  <rect x="586" y="402" width="484" height="126" rx="24" fill="#F8FAFC" fill-opacity="0.06"/>
  <rect x="586" y="554" width="484" height="116" rx="24" fill="#F8FAFC" fill-opacity="0.06"/>
  <circle cx="190" cy="172" r="12" fill="#22C55E"/>
  <circle cx="230" cy="172" r="12" fill="#F59E0B"/>
  <circle cx="270" cy="172" r="12" fill="#EF4444"/>
  <rect x="330" y="160" width="182" height="22" rx="11" fill="#E5E7EB" fill-opacity="0.45"/>
  <rect x="190" y="324" width="160" height="16" rx="8" fill="#93C5FD"/>
  <rect x="190" y="364" width="232" height="12" rx="6" fill="#E5E7EB" fill-opacity="0.35"/>
  <rect x="190" y="394" width="206" height="12" rx="6" fill="#E5E7EB" fill-opacity="0.25"/>
  <rect x="190" y="484" width="110" height="110" rx="55" fill="#22C55E" fill-opacity="0.18"/>
  <path d="M737 308H899" stroke="#A7F3D0" stroke-width="18" stroke-linecap="round"/>
  <path d="M737 460H952" stroke="#93C5FD" stroke-width="18" stroke-linecap="round"/>
  <path d="M737 612H1002" stroke="#FDE68A" stroke-width="18" stroke-linecap="round"/>
  <path d="M256 539L288 571L364 495" stroke="#A7F3D0" stroke-width="24" stroke-linecap="round" stroke-linejoin="round"/>
</svg>
